<svg width="16" height="16" viewBox="0 0 16 16" fill="none" xmlns="http://www.w3.org/2000/svg">
<g clip-path="url(#clip0_351_9506)">
<path d="M8 15.0281C6.14348 15.0281 4.36301 14.2896 3.05025 12.9748C1.7375 11.6601 1 9.87702 1 8.01775C1 6.15847 1.7375 4.37535 3.05025 3.06064C4.36301 1.74594 6.14348 1.00735 8 1.00735C9.85652 1.00735 11.637 1.74594 12.9497 3.06064C14.2625 4.37535 15 6.15847 15 8.01775C15 9.87702 14.2625 11.6601 12.9497 12.9748C11.637 14.2896 9.85652 15.0281 8 15.0281ZM8 16.0296C10.1217 16.0296 12.1566 15.1855 13.6569 13.683C15.1571 12.1805 16 10.1426 16 8.01775C16 5.89286 15.1571 3.85501 13.6569 2.35249C12.1566 0.849967 10.1217 0.00585938 8 0.00585938C5.87827 0.00585938 3.84344 0.849967 2.34315 2.35249C0.842855 3.85501 0 5.89286 0 8.01775C0 10.1426 0.842855 12.1805 2.34315 13.683C3.84344 15.1855 5.87827 16.0296 8 16.0296V16.0296Z" fill="#090C02"/>
<path d="M4.64592 4.65883C4.69236 4.6122 4.74754 4.5752 4.80828 4.54996C4.86903 4.52471 4.93415 4.51172 4.99992 4.51172C5.06568 4.51172 5.13081 4.52471 5.19155 4.54996C5.2523 4.5752 5.30747 4.6122 5.35392 4.65883L7.99992 7.30976L10.6459 4.65883C10.6924 4.61227 10.7476 4.57534 10.8083 4.55015C10.8691 4.52495 10.9342 4.51198 10.9999 4.51198C11.0657 4.51198 11.1308 4.52495 11.1915 4.55015C11.2522 4.57534 11.3074 4.61227 11.3539 4.65883C11.4004 4.70539 11.4373 4.76066 11.4624 4.82149C11.4876 4.88232 11.5005 4.94752 11.5005 5.01336C11.5005 5.0792 11.4876 5.1444 11.4624 5.20522C11.4373 5.26605 11.4004 5.32133 11.3539 5.36788L8.70692 8.01781L11.3539 10.6677C11.4004 10.7143 11.4373 10.7696 11.4624 10.8304C11.4876 10.8912 11.5005 10.9564 11.5005 11.0223C11.5005 11.0881 11.4876 11.1533 11.4624 11.2141C11.4373 11.275 11.4004 11.3302 11.3539 11.3768C11.3074 11.4234 11.2522 11.4603 11.1915 11.4855C11.1308 11.5107 11.0657 11.5236 10.9999 11.5236C10.9342 11.5236 10.8691 11.5107 10.8083 11.4855C10.7476 11.4603 10.6924 11.4234 10.6459 11.3768L7.99992 8.72586L5.35392 11.3768C5.30743 11.4234 5.25224 11.4603 5.1915 11.4855C5.13076 11.5107 5.06566 11.5236 4.99992 11.5236C4.93417 11.5236 4.86907 11.5107 4.80833 11.4855C4.74759 11.4603 4.6924 11.4234 4.64592 11.3768C4.59943 11.3302 4.56255 11.275 4.53739 11.2141C4.51223 11.1533 4.49929 11.0881 4.49929 11.0223C4.49929 10.9564 4.51223 10.8912 4.53739 10.8304C4.56255 10.7696 4.59943 10.7143 4.64592 10.6677L7.29292 8.01781L4.64592 5.36788C4.59935 5.32137 4.56241 5.26611 4.5372 5.20528C4.512 5.14444 4.49902 5.07922 4.49902 5.01336C4.49902 4.94749 4.512 4.88227 4.5372 4.82144C4.56241 4.7606 4.59935 4.70535 4.64592 4.65883Z" fill="#090C02"/>
</g>
<defs>
<clipPath id="clip0_351_9506">
<rect width="16" height="16.0238" fill="white" transform="translate(0 0.00585938)"/>
</clipPath>
</defs>
</svg>
